<?xml version="1.0" encoding="UTF-8" standalone="no"?>
<!-- Created with Inkscape (http://www.inkscape.org/) -->

<svg
   xmlns:dc="http://purl.org/dc/elements/1.1/"
   xmlns:cc="http://creativecommons.org/ns#"
   xmlns:rdf="http://www.w3.org/1999/02/22-rdf-syntax-ns#"
   xmlns:svg="http://www.w3.org/2000/svg"
   xmlns="http://www.w3.org/2000/svg"
   xmlns:sodipodi="http://sodipodi.sourceforge.net/DTD/sodipodi-0.dtd"
   xmlns:inkscape="http://www.inkscape.org/namespaces/inkscape"
   width="169.23114mm"
   height="137.0473mm"
   viewBox="0 0 599.6379 485.60068"
   id="svg2"
   version="1.1"
   inkscape:version="0.91 r"
   sodipodi:docname="drawing.svg">
  <defs
     id="defs4">
    <clipPath
       clipPathUnits="userSpaceOnUse"
       id="presentation_clip_path">
      <rect
         id="rect3341"
         height="29700"
         width="21000"
         y="0"
         x="0" />
    </clipPath>
  </defs>
  <sodipodi:namedview
     id="base"
     pagecolor="#ffffff"
     bordercolor="#666666"
     borderopacity="1.0"
     inkscape:pageopacity="0.0"
     inkscape:pageshadow="2"
     inkscape:zoom="0.35"
     inkscape:cx="4.8189449"
     inkscape:cy="131.37173"
     inkscape:document-units="px"
     inkscape:current-layer="layer1"
     showgrid="false"
     fit-margin-top="0"
     fit-margin-left="0"
     fit-margin-right="0"
     fit-margin-bottom="0"
     inkscape:window-width="1920"
     inkscape:window-height="1025"
     inkscape:window-x="0"
     inkscape:window-y="0"
     inkscape:window-maximized="1" />
  <metadata
     id="metadata7">
    <rdf:RDF>
      <cc:Work
         rdf:about="">
        <dc:format>image/svg+xml</dc:format>
        <dc:type
           rdf:resource="http://purl.org/dc/dcmitype/StillImage" />
        <dc:title></dc:title>
      </cc:Work>
    </rdf:RDF>
  </metadata>
  <g
     inkscape:label="Layer 1"
     inkscape:groupmode="layer"
     id="layer1"
     transform="translate(-45.895341,-183.84756)">
    <g
       style="fill-rule:evenodd;stroke-width:28.22200012;stroke-linejoin:round"
       id="g3520"
       transform="matrix(0.03542238,0,0,0.0494088,-27.991812,-37.79483)">
      <g
         id="g3378">
        <g
           class="Master_Slide"
           id="id2">
          <g
             class="Background"
             id="bg-id2" />
          <g
             class="BackgroundObjects"
             id="bo-id2" />
        </g>
      </g>
      <g
         id="g3383"
         class="SlideGroup">
        <g
           id="g3385">
          <g
             clip-path="url(#presentation_clip_path)"
             class="Slide"
             id="id1">
            <g
               id="g3388"
               class="Page">
              <g
                 id="g3390"
                 class="com.sun.star.drawing.CustomShape">
                <g
                   id="id3">
                  <path
                     id="path3393"
                     d="m 10550,14300 -8450,0 0,-9800 16900,0 0,9800 -8450,0 z"
                     inkscape:connector-curvature="0"
                     style="fill:#b2b2b2;stroke:none" />
                  <path
                     id="path3395"
                     d="m 10550,14300 -8450,0 0,-9800 16900,0 0,9800 -8450,0 z"
                     inkscape:connector-curvature="0"
                     style="fill:none;stroke:#666666" />
                </g>
              </g>
              <g
                 id="g3397"
                 class="com.sun.star.drawing.CustomShape">
                <g
                   id="id4">
                  <path
                     id="path3400"
                     d="m 7850,12400 -5050,0 0,-7100 10100,0 0,7100 -5050,0 z"
                     inkscape:connector-curvature="0"
                     style="fill:#6666ff;stroke:none" />
                  <path
                     id="path3402"
                     d="m 7850,12400 -5050,0 0,-7100 10100,0 0,7100 -5050,0 z"
                     inkscape:connector-curvature="0"
                     style="fill:none;stroke:#666666" />
                </g>
              </g>
              <g
                 id="g3404"
                 class="com.sun.star.drawing.CustomShape">
                <g
                   id="id5">
                  <path
                     id="path3407"
                     d="m 3550,13400 -650,0 0,-800 1300,0 0,800 -650,0 z"
                     inkscape:connector-curvature="0"
                     style="fill:#666666;stroke:none" />
                  <path
                     id="path3409"
                     d="m 3550,13400 -650,0 0,-800 1300,0 0,800 -650,0 z"
                     inkscape:connector-curvature="0"
                     style="fill:none;stroke:#666666" />
                </g>
              </g>
              <g
                 id="g3411"
                 class="com.sun.star.drawing.CustomShape">
                <g
                   id="id6">
                  <path
                     id="path3414"
                     d="m 5250,13400 -650,0 0,-800 1300,0 0,800 -650,0 z"
                     inkscape:connector-curvature="0"
                     style="fill:#666666;stroke:none" />
                  <path
                     id="path3416"
                     d="m 5250,13400 -650,0 0,-800 1300,0 0,800 -650,0 z"
                     inkscape:connector-curvature="0"
                     style="fill:none;stroke:#666666" />
                </g>
              </g>
              <g
                 id="g3418"
                 class="com.sun.star.drawing.CustomShape">
                <g
                   id="id7">
                  <path
                     id="path3421"
                     d="m 6950,13400 -650,0 0,-800 1300,0 0,800 -650,0 z"
                     inkscape:connector-curvature="0"
                     style="fill:#666666;stroke:none" />
                  <path
                     id="path3423"
                     d="m 6950,13400 -650,0 0,-800 1300,0 0,800 -650,0 z"
                     inkscape:connector-curvature="0"
                     style="fill:none;stroke:#666666" />
                </g>
              </g>
              <g
                 id="g3425"
                 class="com.sun.star.drawing.CustomShape">
                <g
                   id="id8">
                  <path
                     id="path3428"
                     d="m 8750,13400 -650,0 0,-800 1300,0 0,800 -650,0 z"
                     inkscape:connector-curvature="0"
                     style="fill:#666666;stroke:none" />
                  <path
                     id="path3430"
                     d="m 8750,13400 -650,0 0,-800 1300,0 0,800 -650,0 z"
                     inkscape:connector-curvature="0"
                     style="fill:none;stroke:#666666" />
                </g>
              </g>
              <g
                 id="g3432"
                 class="com.sun.star.drawing.CustomShape">
                <g
                   id="id9">
                  <path
                     id="path3435"
                     d="m 10450,13400 -650,0 0,-800 1300,0 0,800 -650,0 z"
                     inkscape:connector-curvature="0"
                     style="fill:#666666;stroke:none" />
                  <path
                     id="path3437"
                     d="m 10450,13400 -650,0 0,-800 1300,0 0,800 -650,0 z"
                     inkscape:connector-curvature="0"
                     style="fill:none;stroke:#666666" />
                </g>
              </g>
              <g
                 id="g3439"
                 class="com.sun.star.drawing.CustomShape">
                <g
                   id="id10">
                  <path
                     id="path3442"
                     d="m 12250,13400 -650,0 0,-800 1300,0 0,800 -650,0 z"
                     inkscape:connector-curvature="0"
                     style="fill:#666666;stroke:none" />
                  <path
                     id="path3444"
                     d="m 12250,13400 -650,0 0,-800 1300,0 0,800 -650,0 z"
                     inkscape:connector-curvature="0"
                     style="fill:none;stroke:#666666" />
                </g>
              </g>
              <g
                 id="g3446"
                 class="com.sun.star.drawing.CustomShape">
                <g
                   id="id11">
                  <path
                     id="path3449"
                     d="m 14550,6200 -650,0 0,-800 1300,0 0,800 -650,0 z"
                     inkscape:connector-curvature="0"
                     style="fill:#666666;stroke:none" />
                  <path
                     id="path3451"
                     d="m 14550,6200 -650,0 0,-800 1300,0 0,800 -650,0 z"
                     inkscape:connector-curvature="0"
                     style="fill:none;stroke:#666666" />
                </g>
              </g>
              <g
                 id="g3453"
                 class="com.sun.star.drawing.CustomShape">
                <g
                   id="id12">
                  <path
                     id="path3456"
                     d="m 16250,6200 -650,0 0,-800 1300,0 0,800 -650,0 z"
                     inkscape:connector-curvature="0"
                     style="fill:#666666;stroke:none" />
                  <path
                     id="path3458"
                     d="m 16250,6200 -650,0 0,-800 1300,0 0,800 -650,0 z"
                     inkscape:connector-curvature="0"
                     style="fill:none;stroke:#666666" />
                </g>
              </g>
              <g
                 id="g3460"
                 class="com.sun.star.drawing.CustomShape">
                <g
                   id="id13">
                  <path
                     id="path3463"
                     d="m 16250,7200 -650,0 0,-800 1300,0 0,800 -650,0 z"
                     inkscape:connector-curvature="0"
                     style="fill:#666666;stroke:none" />
                  <path
                     id="path3465"
                     d="m 16250,7200 -650,0 0,-800 1300,0 0,800 -650,0 z"
                     inkscape:connector-curvature="0"
                     style="fill:none;stroke:#666666" />
                </g>
              </g>
              <g
                 id="g3467"
                 class="com.sun.star.drawing.CustomShape">
                <g
                   id="id14">
                  <path
                     id="path3470"
                     d="m 16250,8300 -650,0 0,-800 1300,0 0,800 -650,0 z"
                     inkscape:connector-curvature="0"
                     style="fill:#666666;stroke:none" />
                  <path
                     id="path3472"
                     d="m 16250,8300 -650,0 0,-800 1300,0 0,800 -650,0 z"
                     inkscape:connector-curvature="0"
                     style="fill:none;stroke:#666666" />
                </g>
              </g>
              <g
                 id="g3474"
                 class="com.sun.star.drawing.CustomShape">
                <g
                   id="id15">
                  <path
                     id="path3477"
                     d="m 17350,10900 -650,0 0,-800 1300,0 0,800 -650,0 z"
                     inkscape:connector-curvature="0"
                     style="fill:#666666;stroke:none" />
                  <path
                     id="path3479"
                     d="m 17350,10900 -650,0 0,-800 1300,0 0,800 -650,0 z"
                     inkscape:connector-curvature="0"
                     style="fill:none;stroke:#666666" />
                </g>
              </g>
              <g
                 id="g3481"
                 class="com.sun.star.drawing.CustomShape">
                <g
                   id="id16">
                  <path
                     id="path3484"
                     d="m 17350,12000 -650,0 0,-800 1300,0 0,800 -650,0 z"
                     inkscape:connector-curvature="0"
                     style="fill:#666666;stroke:none" />
                  <path
                     id="path3486"
                     d="m 17350,12000 -650,0 0,-800 1300,0 0,800 -650,0 z"
                     inkscape:connector-curvature="0"
                     style="fill:none;stroke:#666666" />
                </g>
              </g>
              <g
                 id="g3488"
                 class="com.sun.star.drawing.CustomShape">
                <g
                   id="id17">
                  <path
                     id="path3491"
                     d="m 17350,13000 -650,0 0,-800 1300,0 0,800 -650,0 z"
                     inkscape:connector-curvature="0"
                     style="fill:#666666;stroke:none" />
                  <path
                     id="path3493"
                     d="m 17350,13000 -650,0 0,-800 1300,0 0,800 -650,0 z"
                     inkscape:connector-curvature="0"
                     style="fill:none;stroke:#666666" />
                </g>
              </g>
              <g
                 id="g3495"
                 class="com.sun.star.drawing.CustomShape">
                <g
                   id="id18">
                  <path
                     id="path3498"
                     d="m 14550,7200 -650,0 0,-800 1300,0 0,800 -650,0 z"
                     inkscape:connector-curvature="0"
                     style="fill:#666666;stroke:none" />
                  <path
                     id="path3500"
                     d="m 14550,7200 -650,0 0,-800 1300,0 0,800 -650,0 z"
                     inkscape:connector-curvature="0"
                     style="fill:none;stroke:#666666" />
                </g>
              </g>
              <g
                 id="g3502"
                 class="com.sun.star.drawing.CustomShape">
                <g
                   id="id19">
                  <path
                     id="path3505"
                     d="m 14550,8300 -650,0 0,-800 1300,0 0,800 -650,0 z"
                     inkscape:connector-curvature="0"
                     style="fill:#666666;stroke:none" />
                  <path
                     id="path3507"
                     d="m 14550,8300 -650,0 0,-800 1300,0 0,800 -650,0 z"
                     inkscape:connector-curvature="0"
                     style="fill:none;stroke:#666666" />
                </g>
              </g>
              <g
                 id="g3509"
                 class="com.sun.star.drawing.PolyLineShape">
                <g
                   id="id20">
                  <path
                     id="path3512"
                     d="m 3000,12100 800,-900 800,-400 300,-800 700,-300 1000,-1100 300,300 500,-900 900,-500 0,1200 1400,300 0,600 200,500 300,400 300,300 1600,700 800,400"
                     inkscape:connector-curvature="0"
                     style="fill:none;stroke:#ffffff;stroke-width:100;stroke-linejoin:round" />
                </g>
              </g>
            </g>
          </g>
        </g>
      </g>
    </g>
  </g>
</svg>
